<?xml version="1.0" standalone="no"?>
<!DOCTYPE svg PUBLIC "-//W3C//DTD SVG 20010904//EN"
 "http://www.w3.org/TR/2001/REC-SVG-20010904/DTD/svg10.dtd">
<svg version="1.0" xmlns="http://www.w3.org/2000/svg"
 width="50.000000pt" height="50.000000pt" viewBox="0 0 50.000000 50.000000"
 preserveAspectRatio="xMidYMid meet">
<metadata>
Created by potrace 1.10, written by Peter Selinger 2001-2011
</metadata>
<g transform="translate(0.000000,50.000000) scale(0.100000,-0.100000)"
fill="#000000" stroke="none">
<path d="M6 414 c-8 -20 -8 -328 0 -348 8 -20 89 -23 98 -3 5 10 7 10 12 0 4
-10 41 -13 134 -13 93 0 130 3 134 13 5 10 7 10 12 0 9 -20 90 -17 98 3 8 20
8 288 0 308 -5 13 -25 16 -119 16 -104 0 -113 1 -118 20 -5 19 -14 20 -125 20
-100 0 -121 -3 -126 -16z m234 -24 c0 -19 7 -20 120 -20 l120 0 0 -150 0 -150
-30 0 c-16 0 -30 5 -30 10 0 6 -13 10 -30 10 -16 0 -30 -4 -30 -10 0 -6 -43
-10 -110 -10 -67 0 -110 4 -110 10 0 6 -13 10 -30 10 -16 0 -30 -4 -30 -10 0
-5 -13 -10 -30 -10 l-30 0 0 170 0 170 110 0 c103 0 110 -1 110 -20z"/>
<path d="M104 305 c-4 -9 -3 -28 0 -43 12 -51 11 -56 -16 -70 -46 -22 -32 -32
47 -32 79 0 93 10 48 32 -28 14 -29 16 -16 82 4 18 1 31 -8 37 -22 14 -49 11
-55 -6z"/>
<path d="M260 270 c0 -6 37 -10 90 -10 53 0 90 4 90 10 0 6 -37 10 -90 10 -53
0 -90 -4 -90 -10z"/>
<path d="M260 220 c0 -6 37 -10 90 -10 53 0 90 4 90 10 0 6 -37 10 -90 10 -53
0 -90 -4 -90 -10z"/>
<path d="M260 170 c0 -6 37 -10 90 -10 53 0 90 4 90 10 0 6 -37 10 -90 10 -53
0 -90 -4 -90 -10z"/>
</g>
</svg>
