<?xml version="1.0" standalone="no"?>
<!DOCTYPE svg PUBLIC "-//W3C//DTD SVG 20010904//EN"
 "http://www.w3.org/TR/2001/REC-SVG-20010904/DTD/svg10.dtd">
<svg version="1.0" xmlns="http://www.w3.org/2000/svg"
 width="300.000000pt" height="67.000000pt" viewBox="0 0 300.000000 67.000000"
 preserveAspectRatio="xMidYMid meet">
<metadata>
Created by potrace 1.10, written by Peter Selinger 2001-2011
</metadata>
<g transform="translate(0.000000,67.000000) scale(0.100000,-0.100000)"
fill="#000000" stroke="none">
<path d="M355 635 c-17 -16 -25 -35 -24 -57 l1 -33 9 32 c5 17 22 41 37 53 44
36 113 24 238 -40 57 -29 104 -54 104 -55 0 -2 -15 -27 -32 -57 -26 -42 -59
-108 -83 -165 -1 -1 -32 9 -71 22 -105 37 -153 31 -140 -18 7 -28 63 -75 105
-87 32 -9 84 9 99 35 8 16 18 14 108 -23 156 -63 240 -86 325 -86 47 -1 86 4
102 13 36 19 74 101 47 101 -5 0 -10 -11 -10 -24 0 -37 -40 -72 -92 -80 -81
-12 -189 17 -416 114 l-52 23 51 96 c28 53 55 101 60 107 6 7 25 10 49 7 26
-4 47 0 63 9 29 20 62 81 54 102 -14 36 -95 5 -138 -53 l-22 -30 -40 26 c-99
63 -179 93 -245 93 -53 0 -67 -4 -87 -25z m515 -29 c0 -36 -46 -86 -78 -86
-56 0 -56 15 -2 63 59 53 80 59 80 23z m-357 -287 c34 -11 66 -25 71 -30 16
-15 -24 -49 -59 -49 -44 0 -114 53 -115 88 0 18 32 15 103 -9z"/>
<path d="M2683 645 c-28 -8 -80 -26 -115 -40 -83 -34 -240 -75 -289 -75 -31 0
-39 4 -39 19 0 29 -23 43 -44 28 -24 -18 -17 -51 12 -55 18 -3 22 -8 16 -25
-27 -88 -190 -232 -239 -213 -25 9 -16 85 18 159 16 36 22 59 15 63 -5 4 -55
-38 -109 -92 -97 -97 -123 -114 -75 -51 36 47 96 177 96 208 0 63 -76 69 -187
14 -88 -43 -143 -93 -143 -128 0 -25 34 -45 46 -26 3 5 0 9 -5 9 -6 0 -11 11
-11 24 0 62 187 162 266 142 23 -6 26 -10 20 -39 -3 -17 -40 -88 -80 -158 -41
-70 -71 -130 -68 -134 3 -3 57 45 119 107 62 62 113 110 113 106 0 -3 -11 -30
-25 -60 -26 -57 -33 -126 -13 -146 23 -23 65 -13 126 32 33 24 63 49 67 55 3
6 11 9 16 5 5 -3 -4 -21 -21 -40 -16 -19 -30 -41 -30 -49 0 -39 110 10 142 62
15 24 15 25 21 4 3 -11 2 -19 -2 -18 -4 1 -20 -13 -35 -30 -39 -47 -23 -41 36
12 28 25 61 48 74 51 13 3 24 10 24 15 0 15 -13 10 -55 -18 -29 -19 -35 -21
-23 -7 17 19 16 20 -25 23 -23 2 -57 3 -75 3 -35 -1 -35 1 4 53 13 17 27 41
32 54 7 20 17 25 53 28 74 7 165 31 277 74 115 43 204 60 217 40 16 -27 -6
-59 -58 -89 -49 -28 -167 -143 -167 -164 0 -4 -11 -8 -24 -8 -23 0 -92 -40
-111 -65 -19 -23 -50 -22 -53 1 -2 15 8 28 35 46 41 28 146 129 170 166 22 32
8 39 -33 17 -38 -20 -154 -139 -154 -157 0 -6 30 22 66 61 37 40 80 79 97 87
l29 16 -27 -37 c-44 -57 -159 -155 -167 -142 -4 6 -14 -4 -24 -26 -14 -29 -15
-39 -5 -51 19 -22 84 -14 131 18 l39 26 -9 -25 c-6 -15 -6 -26 0 -30 6 -4 10
1 10 10 0 49 128 207 202 249 l33 19 -22 -25 c-13 -13 -23 -28 -23 -33 0 -15
42 30 67 72 28 48 24 78 -10 87 -29 8 -33 7 -94 -9z m-453 -96 c0 -24 -23 -21
-28 4 -2 10 3 17 12 17 10 0 16 -9 16 -21z m20 -199 c-14 -27 -84 -73 -105
-68 -13 2 -9 12 20 46 28 32 44 42 66 42 27 0 29 -2 19 -20z m280 3 c-1 -13
-80 -65 -92 -61 -7 3 7 19 31 36 44 32 61 39 61 25z"/>
<path d="M1462 621 c-11 -7 -11 -9 1 -14 16 -6 27 0 27 15 0 10 -11 10 -28 -1z"/>
<path d="M1585 601 c7 -23 7 -24 -51 -16 -71 9 -84 10 -244 20 -107 7 -130 5
-157 -9 -42 -21 -48 -33 -32 -62 12 -23 9 -28 -37 -75 -56 -58 -133 -121 -119
-99 22 38 61 80 73 80 7 0 11 4 8 9 -4 5 13 25 36 45 23 20 37 36 31 36 -6 0
-31 -18 -56 -41 -35 -30 -54 -40 -74 -37 -25 3 -22 7 42 51 38 26 62 47 53 47
-16 0 -110 -69 -123 -90 -3 -5 -21 -10 -38 -10 l-32 0 25 20 c14 11 45 34 69
50 25 17 37 30 28 30 -8 0 -44 -23 -78 -50 -34 -28 -69 -50 -78 -51 -10 0 -11
-3 -4 -5 8 -4 0 -21 -23 -50 -30 -40 -36 -56 -33 -80 1 -9 -23 -24 -38 -24
-20 0 -15 22 12 62 27 41 30 48 15 48 -13 0 -62 -98 -55 -110 3 -5 23 -9 43
-8 20 1 45 -2 55 -6 10 -5 17 -4 17 2 0 5 -10 12 -21 15 -18 5 -20 11 -15 33
4 15 21 47 38 71 24 33 38 43 60 43 l28 0 -35 -46 c-44 -57 -47 -100 -9 -115
15 -5 29 -7 32 -4 4 3 -3 8 -15 11 -33 9 -36 33 -8 78 41 68 50 76 85 76 l33
0 -20 -22 c-32 -36 -63 -91 -63 -114 0 -27 25 -38 51 -23 15 7 24 7 35 -1 16
-14 80 -5 90 12 5 8 1 9 -10 5 -47 -18 -66 -19 -72 -3 -9 24 22 66 50 66 30 0
72 33 62 48 -4 7 -13 12 -21 12 -20 0 -74 -48 -101 -92 -18 -28 -31 -38 -50
-38 -22 0 -24 3 -18 23 3 12 11 24 16 26 18 6 124 99 151 131 27 31 28 32 47
15 28 -26 25 -8 -5 27 -58 69 -2 93 178 77 67 -5 123 -12 125 -13 1 -2 -13
-28 -33 -57 -19 -30 -56 -93 -80 -141 -43 -83 -56 -128 -35 -128 5 0 7 7 4 15
-7 18 36 106 108 220 l53 85 70 -2 c61 -3 70 -1 73 16 2 10 -2 23 -8 30 -10 8
-11 6 -5 -13z m-475 -201 c0 -6 -12 -15 -26 -20 -42 -16 -51 -11 -19 10 34 22
45 25 45 10z"/>
<path d="M1126 535 c4 -8 7 -15 9 -15 2 0 5 7 9 15 3 9 0 15 -9 15 -9 0 -12
-6 -9 -15z"/>
<path d="M425 518 c-31 -17 -95 -81 -95 -95 0 -24 44 -9 86 29 12 11 29 20 37
22 9 1 26 14 37 29 l21 27 -33 0 c-18 0 -42 -6 -53 -12z m45 -5 c-1 -12 -93
-83 -108 -83 -9 0 -8 6 4 25 25 39 105 83 104 58z"/>
<path d="M435 440 c-9 -18 -14 -34 -11 -37 2 -3 12 9 21 27 9 18 14 34 11 37
-2 3 -12 -9 -21 -27z"/>
<path d="M759 424 c-12 -14 -11 -16 5 -13 11 2 21 10 24 17 5 17 -13 15 -29
-4z"/>
<path d="M1405 419 c-12 -19 5 -23 22 -6 16 16 16 17 1 17 -9 0 -20 -5 -23
-11z"/>
<path d="M1370 341 c-12 -27 -19 -54 -15 -61 12 -19 66 -1 123 43 29 22 55 37
59 33 3 -3 12 -1 20 5 19 17 15 -2 -7 -31 -11 -14 -20 -29 -20 -34 0 -13 50 3
82 25 33 24 35 18 8 -27 -19 -29 -27 -33 -78 -39 -265 -27 -345 -47 -386 -96
-30 -36 -31 -40 -11 -79 25 -48 80 -75 156 -75 59 0 71 4 121 37 51 34 116
102 166 174 l22 32 182 -4 c205 -4 423 -19 513 -35 118 -21 153 -62 94 -111
-38 -32 -29 -37 18 -8 111 67 24 123 -237 150 -52 6 -200 13 -327 17 -128 3
-233 8 -233 10 0 3 14 24 30 49 17 24 26 44 20 44 -6 0 -35 -14 -65 -31 -62
-35 -70 -28 -24 18 l30 32 -33 -1 c-37 -1 -63 -12 -94 -40 -12 -11 -28 -20
-35 -21 -8 -2 -25 -10 -39 -20 -25 -18 -50 -23 -50 -9 0 4 12 25 25 47 26 42
30 55 17 55 -5 0 -19 -22 -32 -49z m210 -107 c0 -26 -115 -150 -174 -189 -68
-45 -165 -38 -218 16 -73 73 16 143 214 168 79 10 178 13 178 5z"/>
<path d="M1460 355 c-13 -14 -21 -27 -18 -30 2 -3 14 9 27 25 26 37 23 39 -9
5z"/>
<path d="M1506 310 c-14 -22 -22 -40 -17 -40 10 0 54 70 48 76 -2 3 -16 -14
-31 -36z"/>
</g>
</svg>
