<?xml version="1.0" standalone="no"?>
<!DOCTYPE svg PUBLIC "-//W3C//DTD SVG 20010904//EN"
 "http://www.w3.org/TR/2001/REC-SVG-20010904/DTD/svg10.dtd">
<svg version="1.0" xmlns="http://www.w3.org/2000/svg"
 width="50.000000pt" height="50.000000pt" viewBox="0 0 50.000000 50.000000"
 preserveAspectRatio="xMidYMid meet">
<metadata>
Created by potrace 1.10, written by Peter Selinger 2001-2011
</metadata>
<g transform="translate(0.000000,50.000000) scale(0.100000,-0.100000)"
fill="#000000" stroke="none">
<path d="M91 446 c-43 -24 -50 -52 -51 -193 0 -204 8 -213 209 -213 202 0 211
9 211 210 0 144 -9 177 -55 198 -37 17 -282 15 -314 -2z m302 -17 c38 -17 47
-50 47 -179 0 -182 -8 -190 -190 -190 -182 0 -190 8 -190 190 0 126 9 161 44
178 29 14 259 15 289 1z"/>
<path d="M170 397 c-51 -27 -90 -90 -90 -147 0 -87 83 -170 170 -170 87 0 170
83 170 170 0 87 -83 170 -170 170 -20 0 -56 -10 -80 -23z m150 -17 c45 -23 80
-80 80 -130 0 -76 -74 -150 -151 -150 -46 0 -108 39 -130 82 -37 72 -14 151
57 194 48 29 92 30 144 4z"/>
<path d="M211 371 c-12 -8 -10 -18 15 -58 29 -47 30 -48 87 -51 54 -3 57 -2
57 20 0 64 -106 122 -159 89z m89 -26 c26 -13 50 -42 50 -59 0 -14 -27 -3 -49
19 -13 14 -34 25 -47 25 -15 0 -24 6 -24 15 0 19 33 19 70 0z"/>
<path d="M145 326 c-26 -39 -29 -95 -8 -136 10 -19 24 -35 32 -35 8 0 26 21
40 48 l26 47 -26 47 c-31 57 -43 62 -64 29z m38 -18 c2 -7 -1 -23 -6 -35 -7
-16 -7 -30 0 -45 10 -24 7 -48 -6 -48 -11 0 -31 47 -31 70 0 23 20 70 31 70 4
0 9 -6 12 -12z"/>
<path d="M230 193 c-36 -57 -37 -61 -4 -69 61 -15 144 38 144 92 0 22 -4 24
-55 24 -55 0 -56 0 -85 -47z m120 21 c0 -30 -59 -74 -100 -74 -33 0 -23 19 19
36 22 8 42 22 45 30 5 13 36 21 36 8z"/>
</g>
</svg>
